<?xml version="1.0" encoding="utf-8"?>
<!-- Generator: Adobe Illustrator 19.2.1, SVG Export Plug-In . SVG Version: 6.00 Build 0)  -->
<svg version="1.1" id="layer" xmlns="http://www.w3.org/2000/svg" xmlns:xlink="http://www.w3.org/1999/xlink" x="0px" y="0px"
	 viewBox="0 0 652 652" style="enable-background:new 0 0 652 652;" xml:space="preserve">
<style type="text/css">
	.st0{fill:url(#SVGID_1_);}
	.st1{fill:#27235D;}
</style>
<linearGradient id="SVGID_1_" gradientUnits="userSpaceOnUse" x1="24.3" y1="325.15" x2="106.3502" y2="325.15" gradientTransform="matrix(1 0 0 -1 2 651)">
	<stop  offset="0" style="stop-color:#7C59A4"/>
	<stop  offset="0.4934" style="stop-color:#647ABA"/>
	<stop  offset="1" style="stop-color:#3BC5F3"/>
</linearGradient>
<path class="st0" d="M96.5,296.5h12v-12h-12V296.5z M96.5,266.6v12h12v-12H96.5z M96.5,314.5h12v-12h-12V314.5z M96.5,349.6h12
	v-29.1h-12V349.6z M79.7,296.5h12v-12h-12V296.5z M79.7,369.4h12v-66.9h-12V369.4z M61.4,332.8h12v-12h-12V332.8z M61.4,278.6h12
	v-12h-12V278.6z M61.4,314.5h12v-29.9h-12V314.5z M61.4,385.1h12v-47.4h-12V385.1z M26.3,296.5h12v-12h-12V296.5z M26.3,278.6h12
	v-12h-12V278.6z M26.3,349.6h12v-47.1h-12V349.6z M43.1,369.4h12v-84.8h-12V369.4z"/>
<path class="st1" d="M190.3,285.3V301h-41.1v20.5H178v16.1h-28.8v31.8h-19.1v-84.1H190.3z M256.4,336.9c0,19.8-13.8,32.9-34.4,32.9
	c-20.9,0-34.7-13.4-34.7-32.9c0-19.8,13.8-32.9,34.7-32.9C242.6,304,256.4,317.1,256.4,336.9z M205.6,337.2
	c0,10.5,6.7,17.9,16.1,17.9c9.3,0,16.1-7.1,16.1-17.9c0-10.8-6.7-17.9-16.1-17.9C212.4,319.3,205.6,326.8,205.6,337.2z M305.8,304
	v16.4c-13.1-1.1-21.3,7.1-21.3,17.9v31h-18.3v-64.6h18.3v11.6C288.9,308.5,296,304,305.8,304z M358.8,365.6
	c-4.9,2.6-10.8,4.5-16.8,4.5c-11.6,0-20.2-6.7-20.2-19.8v-29.9h-9V304h9v-14.2h18.3V304h17.6v16.4h-17.6V347c0,5.2,2.2,7.5,6.4,7.5
	c2.2,0,5.2-0.7,8.6-2.2L358.8,365.6z M405.1,369.4v-7.5c-4.5,5.2-11.2,8.2-20.2,8.2c-13.8,0-22-8.2-22-20.2s8.6-19.4,24.7-19.4h17.9
	v-1.1c0-6.7-4.5-10.8-13.4-10.8c-5.6,0-12.3,1.9-19.1,5.6l-6.4-12.7c9.7-4.9,17.9-7.5,29.1-7.5c17.2,0,27.3,8.6,27.3,23.2v42.2
	H405.1z M404.8,347.3v-6h-14.6c-7.1,0-10.5,2.2-10.5,7.5c0,4.9,3.7,8.2,10.1,8.2C397.7,357,404,352.6,404.8,347.3z M498.9,328.7V369
	h-18.3v-35.1c0-8.2-4.9-13.1-12.7-13.1c-9.3,0-14.6,7.1-14.6,16.4V369H435v-64.3h18.3v11.2c4.5-8.2,12.3-12,22.4-12
	C489.6,304,498.9,313.7,498.9,328.7z M530.3,304.7v64.6H512v-64.6H530.3z M530.3,286.4c0,5.2-3.7,9.3-9,9.3s-9-4.1-9-9.3
	s3.7-9.3,9-9.3S530.3,280.8,530.3,286.4z M559.4,304.7l12,19.4l12.7-19.4h20.2l-20.5,31.4l22,33.3h-21.3l-13.1-20.9l-14.2,20.9
	h-20.5l22.4-32.9l-20.9-31.4h21.3V304.7z M626.3,311.8c0,4.9-4.1,9-9,9c-5.2,0-9-4.1-9-9s4.1-9,9-9
	C622.2,302.9,626.3,307,626.3,311.8z M624.4,311.8c0-4.1-3-7.1-7.5-7.1c-4.1,0-7.5,3.4-7.5,7.5c0,4.1,3,7.1,7.1,7.1
	C621.4,319.3,624.4,315.9,624.4,311.8z M619.2,313l1.9,3h-1.9l-1.5-2.6h-0.4h-1.9v2.6H614v-9h3.7c2.2,0,3.7,1.1,3.7,3
	C621.1,311.5,620.3,312.6,619.2,313z M615.5,311.8h1.9c1.1,0,1.9-0.7,1.9-1.9s-0.7-1.5-1.9-1.5h-1.9V311.8z"/>
</svg>
