<?xml version="1.0" encoding="utf-8"?>
<!-- Generator: Adobe Illustrator 25.0.1, SVG Export Plug-In . SVG Version: 6.00 Build 0)  -->
<svg version="1.0" id="Layer_1" xmlns="http://www.w3.org/2000/svg" xmlns:xlink="http://www.w3.org/1999/xlink" x="0px" y="0px"
	 viewBox="0 0 904.5 558.4" style="enable-background:new 0 0 904.5 558.4;" xml:space="preserve">
<style type="text/css">
	.st0{fill:#FEE01B;}
	.st1{fill:#242424;}
	.st2{fill:#1A1818;}
	.st3{fill:none;}
</style>
<path class="st0" d="M163.5,198.6c16.7-3,34-0.8,49.3,6.4c-4.4,6-9,11.8-13.6,17.6c-17.4-6.3-37.7-4.6-53.3,5.5
	c-13.1,8.3-22.6,21.4-26.4,36.4c-3.1,12.9-2.2,26.9,3.3,39c13.2,30.4,48.6,44.3,79,31.1c9.6-4.2,17.9-10.8,24.1-19.1
	c9.6-12.7,13.8-28.8,11.5-44.6c-0.3-1.7-0.4-3.5-0.2-5.2c1.4-2.6,3.6-4.8,5.4-7.2c3.4-4.1,6-8.8,10-12.3c8.7,19.2,9.2,41.9,1.8,61.6
	c-6.8,18.2-19.9,33.4-36.9,42.9c-18,10.1-39.1,13-59.1,8c-18-4.2-34.1-15.1-45.4-29.7c-10-12.7-15.5-28.4-16.9-44.5v-10
	c1.2-16.5,6.9-32.7,17.3-45.7C125.8,212.9,143.6,202.1,163.5,198.6L163.5,198.6z"/>
<path class="st1" d="M556.4,209.2c7.4,0,14.8,0,22.2,0c-0.1,9,0,18-0.1,27c7.9,0,15.9,0,23.8,0c0,6.2,0,12.3,0,18.5
	c-7.9,0-15.8,0-23.8,0c0.1,15.2,0,30.3,0.1,45.5c-0.2,2.4,1.5,4.9,4.1,4.8c5.9,0.2,11.7,0,17.6,0c0,6.1,0,12.1,0,18.2
	c-8.2,0-16.5,0-24.7,0c-10,0.5-18.6-7.2-19.1-17.2c0-0.5,0-0.9,0-1.4c0-16.7,0-33.4,0-50.1c-7.6,0.1-15.3,0.1-22.9,0
	c-5.6-0.1-10.9,2.7-14.8,6.6c-3.5,3.7-4.2,9-4.2,13.9c0,16.1,0,32.1,0,48.2c-7.3,0-14.7,0-22,0c0-29,0-58.1,0-87.1
	c7.2,0,14.5,0,21.8,0c0,3.3,0,6.6,0,9.9l2.9-0.1c2.4-5.8,8.4-9.4,14.5-9.7c8.2-0.3,16.5,0.1,24.7,0
	C556.5,227.2,556.5,218.2,556.4,209.2 M178.2,278.3c16.5-21.5,33.1-42.8,49.7-64.2c5.6,4.4,10.7,9.6,15.1,15.3
	c-0.5,0.9-1,1.7-1.6,2.5c-20.1,25.9-40.3,51.9-60.3,77.8c-13.3-11.6-26.3-23.6-39.6-35.3c4.9-5.3,9.5-10.8,14.5-16
	C163.3,265.2,170.6,271.9,178.2,278.3 M430.5,234c12.1-1.1,24.9,1.6,34.7,9.1c8.6,6.8,14.1,16.8,15.4,27.7
	c1.4,12.7,0.5,26.6-7.3,37.2c-8,11.8-22.6,17.7-36.6,17.9c-13.1,0.4-26.8-3.9-35.8-13.7c-7.8-8.2-11.2-19.6-11.1-30.7
	c-0.4-10.7,1.7-22,8.3-30.6C405.5,240.6,418.1,234.9,430.5,234 M432,253.7c-9.4,1-17.8,8.4-19.3,17.8c-1.4,8.7-1.4,18.7,4.2,26
	c8.2,10.8,26,11.6,35.3,2c4.8-4.6,6.7-11.5,6.6-18c0.4-7.4-0.9-15.6-6.3-21.1C447.3,254.9,439.3,252.7,432,253.7 M646.5,234.1
	c14.2-1.5,29.7,2.5,39.6,13.2c7.2,7.4,10.9,17.7,11.2,27.9c0.2,7,0.3,14.1-1.8,20.8c-2.9,10.3-9.9,19-19.3,24.2
	c-11.7,6.3-25.9,7.3-38.7,4c-10.3-2.7-19.7-9.2-25.1-18.4c-4.9-8-6.5-17.7-6.1-26.9c-0.3-10.4,2.5-21.1,9.2-29.2
	C622.9,240.2,634.7,235,646.5,234.1 M648.8,253.7c-9.4,0.8-17.9,8.1-19.7,17.5c-1.6,8.8-1.5,18.8,4,26.3c8.5,11.5,28.1,11.7,37,0.5
	c4.3-5.3,5.3-12.5,5.2-19.1c-0.2-6.1-1.3-12.5-5.4-17.3C665,255.4,656.6,252.7,648.8,253.7 M318.8,247.7c3.4-5.5,8.5-10.3,15-11.7
	c10.1-2.2,21.5-1.6,30.2,4.5c9.5,6.5,14.4,18,14.4,29.3c0.1,17.9,0.1,35.7,0,53.6c-7.4,0-14.7,0-22,0c0-16.7,0-33.4,0-50.1
	c-0.2-5.3-1-11.1-5-14.9c-5.5-5.3-14.1-5.9-21-3.8c-5.7,1.7-10,6.6-12,12.1c-1.5,4.4-2.2,9.1-2,13.8c0,14.3,0,28.6,0,42.8
	c-7.4,0-14.8,0-22.2,0c0.1-29,0-58,0-87H316c0,3.8,0,7.6,0,11.5L318.8,247.7 M733.4,248c3.4-6,9.2-10.9,16.1-12.2
	c9.4-1.8,19.9-1.3,28.2,4.2c7.9,4.9,13,13.6,14.6,22.7c0.7,3.9,0.9,7.8,0.8,11.7c0,16.4,0,32.8,0,49.1c-7.4-0.1-14.8,0-22.2,0
	c0-17.2,0-34.5,0-51.7c0-6.2-2.5-12.9-8.2-15.8c-7-3.4-15.3-3.1-22,0.9c-6.7,4.4-9.4,12.6-9.5,20.3c0,15.5,0,30.9,0,46.4
	c-7.4,0-14.8,0-22.2,0c0-29,0-58.1,0-87.1c7.2,0,14.5,0,21.7,0c0,3.7-0.2,7.5,0.1,11.2L733.4,248"/>
<polygon class="st2" points="798.2,236.2 798.2,237.9 795.7,237.9 795.7,246.3 793.8,246.3 793.8,237.9 791.3,237.9 791.3,236.2 "/>
<polygon class="st2" points="799.6,246.3 799.6,236.2 802.2,236.2 804,242.8 805.7,236.2 808.4,236.2 808.4,246.3 806.8,246.3 
	806.8,238.4 806.7,238.4 804.7,246.3 803.3,246.3 801.2,238.4 801.2,238.4 801.2,246.3 "/>
<rect x="84.5" y="177.4" class="st3" width="735.5" height="203.6"/>
</svg>
