<?xml version="1.0" encoding="utf-8"?>
<!-- Generator: Adobe Illustrator 26.0.3, SVG Export Plug-In . SVG Version: 6.00 Build 0)  -->
<svg version="1.0" id="katman_1" xmlns="http://www.w3.org/2000/svg" xmlns:xlink="http://www.w3.org/1999/xlink" x="0px" y="0px"
	 viewBox="0 0 600 450" style="enable-background:new 0 0 600 450;" xml:space="preserve">
<style type="text/css">
	.st0{fill:#010202;}
	.st1{fill:#3764AD;}
</style>
<path class="st0" d="M424.4,207.6V200h12.5v52.1h-12.5v-7.5c-3.3,6.1-10.3,9.1-17.6,9.1c-16.8,0-26.6-13-26.6-27.7
	c0-16.4,11.9-27.6,26.6-27.6C416.2,198.4,422.1,203.4,424.4,207.6z M424.4,226.5c0.1-2.5-0.4-5-1.4-7.3c-2.2-4.9-7.1-9.2-14.6-9.2
	c-10.1,0-15.8,8.2-15.8,16.2v0.1c0,6.5,4.7,15.8,15.9,15.8c7,0,11.5-3.6,13.9-8.4C423.7,231.5,424.3,229.1,424.4,226.5z M469.1,210
	c-4.6-0.1-8.1,1.5-11.2,4.5c-2.7,2.8-4.3,7-4.3,11.6c0,9.4,6.6,16,15.5,16c7.8,0,12.2-4.7,14.1-8.9H496c-3,11.6-13.4,20.6-26.9,20.6
	c-16.6,0-28-12.8-28-27.7c0-15.4,11.9-27.6,27.6-27.6c13.2,0,24.3,8.3,27.4,21h-12.8C481,213.9,476,210,469.1,210z M315.8,200h13.2
	c0,0-19.7,51-22.1,57.1c-3,7.5-6.5,15.5-15.7,15.5c-3.9,0-7-0.5-9.2-1v-10.4c6.4,0.8,9.5,1.5,13.3-9.1L274.5,200h14.1l13.1,35.9
	L315.8,200z M256.5,210.9c13.9,4,20.2,9,20.2,21.3c0,12.3-8,20.8-24.9,20.8c-11.6,0-19.2-2.3-23.1-3.8V237c0,0,11.4,4.9,22.1,4.9
	c10.2,0,12.1-6.2,12.1-9c0-2.8-0.9-7.3-11.9-10.1c-16.8-4.3-23.7-9.5-23.7-22.5c0-12,8.8-19.5,24.4-19.5c9.4,0,16.6,2,20.6,3.4v12.3
	c0,0-11-4.5-19.4-4.5c-8.4,0-12.1,4.3-12.1,8.2C240.7,203.9,242.6,206.9,256.5,210.9z M351.8,197.7c13.2,0,24.8,10.6,24.8,23.7v30.7
	h-12.4v-31c0-6.3-6-11.4-12.3-11.4c-6.3,0-12.3,5.1-12.3,11.4v31H327v-30.7C327,208.3,338.6,197.7,351.8,197.7z M499.9,178.1h12.5
	v44.4l17.3-22.5h15.7l-20,24.6l20.1,27.5h-14.9l-13.1-18.9l-5.1,6.5v12.4h-12.5V178.1z"/>
<path class="st1" d="M131,170.2l14,24.2H117L131,170.2z M91.7,183.5c25,12.4,32.1,42.3,33.9,62.8l-54.3-31.9l-6.1-19.3l40.3,23.6
	c-4.6-11.1-11.3-18.9-20-23.1l-0.2-0.1l-24.4-14.3l-6.1-19.3L91.7,183.5z M75.4,227.3l55.6,32.6l55.6-32.6l-6.1,19.3l-36,21.1l9,5.3
	l0,15.8L131,275.6l-22.5,13.2l0-15.8l9-5.3l-36-21.1L75.4,227.3z M176.5,195.6c-8.7,4.2-15.4,12-20,23.1l40.3-23.6l-6.1,19.3
	l-54.3,31.9c1.8-20.4,8.9-50.4,33.9-62.8l37-21.6l-6.1,19.3l-24.4,14.3L176.5,195.6z"/>
</svg>
